<?xml version="1.0" encoding="UTF-8" standalone="no"?>
<!-- Created with Inkscape (http://www.inkscape.org/) -->

<svg
   width="48"
   height="48"
   viewBox="0 0 48 48"
   version="1.1"
   id="svg1"
   inkscape:version="1.3.2 (091e20e, 2023-11-25)"
   sodipodi:docname="down.svg"
   xmlns:inkscape="http://www.inkscape.org/namespaces/inkscape"
   xmlns:sodipodi="http://sodipodi.sourceforge.net/DTD/sodipodi-0.dtd"
   xmlns="http://www.w3.org/2000/svg"
   xmlns:svg="http://www.w3.org/2000/svg"
   xmlns:rdf="http://www.w3.org/1999/02/22-rdf-syntax-ns#"
   xmlns:cc="http://creativecommons.org/ns#"
   xmlns:dc="http://purl.org/dc/elements/1.1/">
  <title
     id="title1">Code Icon</title>
  <sodipodi:namedview
     id="namedview1"
     pagecolor="#808080"
     bordercolor="#000000"
     borderopacity="0.25"
     inkscape:showpageshadow="2"
     inkscape:pageopacity="0.0"
     inkscape:pagecheckerboard="true"
     inkscape:deskcolor="#808080"
     inkscape:document-units="px"
     inkscape:zoom="6.2204439"
     inkscape:cx="19.934269"
     inkscape:cy="14.789941"
     inkscape:window-width="1920"
     inkscape:window-height="1008"
     inkscape:window-x="0"
     inkscape:window-y="0"
     inkscape:window-maximized="1"
     inkscape:current-layer="layer1" />
  <defs
     id="defs1" />
  <g
     inkscape:label="&lt;/&gt;"
     inkscape:groupmode="layer"
     id="layer1">
    <path
       d="m 3.1292733,9.5776185 c -0.6029639,0 -1.2049805,0.243212 -1.6367188,0.7265635 -0.4312191,0.482773 -0.63867185,1.097618 -0.63867184,1.705078 0,0.607457 0.20660174,1.223305 0.63867184,1.707031 C 8.531858,21.531915 14.88032,28.616759 22.387136,37.024979 v 0.002 l 0.0293,0.03125 0.99414,1.111328 c 0.0048,0.0039 0.225733,0.171462 0.226563,0.171875 8.38e-4,4.17e-4 0.160701,0.06241 0.228516,0.07227 0.135627,0.01971 0.226257,0.0018 0.291015,-0.01367 0.129518,-0.03098 0.178932,-0.06471 0.222656,-0.08984 0.08745,-0.05027 0.127872,-0.08579 0.175782,-0.125 0.261071,-0.213663 0.732452,-0.707474 1.121093,-1.142578 6.948032,-7.769004 13.880466,-15.551558 20.8223,-23.326166 0.863489,-0.966716 0.863488,-2.445391 0,-3.412109 -0.863489,-0.9667145 -2.411902,-0.9667155 -3.275391,0 C 11.779387,45.522621 73.131645,-23.168381 24.03952,31.798481 17.631011,24.62006 11.194961,17.466272 4.7680383,10.304342 4.3361168,9.8206725 3.7322372,9.5776185 3.1292733,9.5776185 Z"
       style="fill:#e7d4e0;stroke-linecap:round;stroke-linejoin:round;paint-order:stroke fill markers"
       id="path3"
       sodipodi:nodetypes="ssscccccsccssccscccs" />
  </g>
  <metadata
     id="metadata1">
    <rdf:RDF>
      <cc:Work
         rdf:about="">
        <dc:title>Code Icon</dc:title>
        <dc:date>March 2nd, 2025</dc:date>
        <dc:creator>
          <cc:Agent>
            <dc:title>Amiah</dc:title>
          </cc:Agent>
        </dc:creator>
        <dc:relation>https://amiah.dev</dc:relation>
        <dc:description>Icon for https://amiah.dev</dc:description>
      </cc:Work>
    </rdf:RDF>
  </metadata>
</svg>
