<?xml version="1.0" encoding="UTF-8" standalone="no"?>
<!-- Created with Inkscape (http://www.inkscape.org/) -->

<svg
   width="48"
   height="48"
   viewBox="0 0 48 48"
   version="1.1"
   id="svg1"
   inkscape:version="1.3.2 (091e20e, 2023-11-25)"
   sodipodi:docname="email.svg"
   xmlns:inkscape="http://www.inkscape.org/namespaces/inkscape"
   xmlns:sodipodi="http://sodipodi.sourceforge.net/DTD/sodipodi-0.dtd"
   xmlns="http://www.w3.org/2000/svg"
   xmlns:svg="http://www.w3.org/2000/svg"
   xmlns:rdf="http://www.w3.org/1999/02/22-rdf-syntax-ns#"
   xmlns:cc="http://creativecommons.org/ns#"
   xmlns:dc="http://purl.org/dc/elements/1.1/">
  <title
     id="title1">Email Icon</title>
  <sodipodi:namedview
     id="namedview1"
     pagecolor="#808080"
     bordercolor="#000000"
     borderopacity="0.25"
     inkscape:showpageshadow="2"
     inkscape:pageopacity="0.0"
     inkscape:pagecheckerboard="true"
     inkscape:deskcolor="#808080"
     inkscape:document-units="px"
     inkscape:zoom="16.75"
     inkscape:cx="24.059701"
     inkscape:cy="19.283582"
     inkscape:window-width="1920"
     inkscape:window-height="1008"
     inkscape:window-x="0"
     inkscape:window-y="0"
     inkscape:window-maximized="1"
     inkscape:current-layer="layer1"
     showgrid="false" />
  <defs
     id="defs1">
    <rect
       x="5.5522388"
       y="2.4477612"
       width="22.507463"
       height="25.61194"
       id="rect2" />
  </defs>
  <g
     inkscape:label="Envelope"
     inkscape:groupmode="layer"
     id="layer1"
     transform="translate(0,-8)">
    <path
       d="m 30.398041,32.51303 5.118888,5.166771 10.2811,10.379145 h 0.02737 c 0.835443,0 1.486644,-0.651202 1.486644,-1.486644 V 17.4277 c 0,-0.835442 -0.651201,-1.486644 -1.486644,-1.486644 h -0.01144 L 35.487288,27.038441 Z"
       style="fill:#e7d4e0;stroke-width:1"
       id="path11"
       inkscape:label="right-tri" />
    <path
       d="m 18.598376,33.58697 -4.571658,4.614981 -9.7703503,9.856995 H 43.739073 l -9.76123,-9.856995 -4.576218,-4.619541 -5.403904,5.814327 z"
       style="fill:#e7d4e0;stroke-width:1"
       id="path10"
       inkscape:label="bottom-shape" />
    <path
       d="m 2.1905713,15.941056 h -0.015961 c -0.8354423,0 -1.48664376,0.651202 -1.48664376,1.486644 v 29.144602 c 0,0.835442 0.65120146,1.486644 1.48664376,1.486644 h 0.029642 L 12.485352,37.679801 17.60196,32.51759 12.510433,27.038441 Z"
       style="fill:#e7d4e0;stroke-width:1"
       id="path9"
       inkscape:label="left-tri" />
    <path
       d="m 4.1834035,15.941056 9.8250735,10.561556 4.621821,4.977519 0.497068,0.533551 0.499348,0.53583 4.371007,4.708465 4.380126,-4.708465 0.494788,-0.53355 0.499348,-0.538111 4.626381,-4.975239 9.825074,-10.561556 z"
       style="fill:#e7d4e0;stroke-width:1"
       id="path8"
       inkscape:label="top-tri" />
  </g>
  <metadata
     id="metadata1">
    <rdf:RDF>
      <cc:Work
         rdf:about="">
        <dc:title>Email Icon</dc:title>
        <dc:date>March 2nd, 2025</dc:date>
        <dc:creator>
          <cc:Agent>
            <dc:title>Amiah</dc:title>
          </cc:Agent>
        </dc:creator>
        <dc:relation>https://amiah.dev</dc:relation>
        <dc:description>Icon for https://amiah.dev</dc:description>
      </cc:Work>
    </rdf:RDF>
  </metadata>
</svg>
