<?xml version="1.0" encoding="UTF-8" standalone="no"?>
<!-- Created with Inkscape (http://www.inkscape.org/) -->

<svg
   width="48"
   height="48"
   viewBox="0 0 48 48"
   version="1.1"
   id="svg1"
   inkscape:version="1.3.2 (091e20e, 2023-11-25)"
   sodipodi:docname="AB_Logo_Final.svg"
   inkscape:export-filename="../../../../../Desktop/AB_Logo_v2.png"
   inkscape:export-xdpi="192"
   inkscape:export-ydpi="192"
   xmlns:inkscape="http://www.inkscape.org/namespaces/inkscape"
   xmlns:sodipodi="http://sodipodi.sourceforge.net/DTD/sodipodi-0.dtd"
   xmlns:xlink="http://www.w3.org/1999/xlink"
   xmlns="http://www.w3.org/2000/svg"
   xmlns:svg="http://www.w3.org/2000/svg"
   xmlns:rdf="http://www.w3.org/1999/02/22-rdf-syntax-ns#"
   xmlns:cc="http://creativecommons.org/ns#"
   xmlns:dc="http://purl.org/dc/elements/1.1/">
  <title
     id="title30">Amiah's Icon</title>
  <sodipodi:namedview
     id="namedview1"
     pagecolor="#505050"
     bordercolor="#ffffff"
     borderopacity="1"
     inkscape:showpageshadow="0"
     inkscape:pageopacity="0"
     inkscape:pagecheckerboard="1"
     inkscape:deskcolor="#505050"
     inkscape:document-units="px"
     inkscape:zoom="9.6033178"
     inkscape:cx="19.628633"
     inkscape:cy="17.389823"
     inkscape:window-width="1920"
     inkscape:window-height="1008"
     inkscape:window-x="0"
     inkscape:window-y="0"
     inkscape:window-maximized="1"
     inkscape:current-layer="layer1" />
  <defs
     id="defs1">
    <linearGradient
       id="linearGradient1"
       inkscape:collect="always">
      <stop
         style="stop-color:#730865;stop-opacity:1;"
         offset="0"
         id="stop1" />
      <stop
         style="stop-color:#e310b1;stop-opacity:1;"
         offset="1"
         id="stop2" />
    </linearGradient>
    <inkscape:path-effect
       effect="bspline"
       id="path-effect3"
       is_visible="true"
       lpeversion="1.3"
       weight="33.333333"
       steps="2"
       helper_size="0"
       apply_no_weight="true"
       apply_with_weight="true"
       only_selected="false"
       uniform="false" />
    <inkscape:path-effect
       effect="bspline"
       id="path-effect2"
       is_visible="true"
       lpeversion="1.3"
       weight="33.333333"
       steps="2"
       helper_size="0"
       apply_no_weight="true"
       apply_with_weight="true"
       only_selected="false"
       uniform="false" />
    <inkscape:path-effect
       effect="bspline"
       id="path-effect1"
       is_visible="true"
       lpeversion="1.3"
       weight="33.333333"
       steps="2"
       helper_size="0"
       apply_no_weight="true"
       apply_with_weight="true"
       only_selected="false"
       uniform="false" />
    <linearGradient
       inkscape:collect="always"
       xlink:href="#linearGradient1"
       id="linearGradient2"
       x1="17.946125"
       y1="37.364517"
       x2="47.833984"
       y2="0"
       gradientUnits="userSpaceOnUse" />
  </defs>
  <g
     inkscape:label="img"
     inkscape:groupmode="layer"
     id="layer1">
    <path
       d="M 11.091797,0 C 5.0380743,0 0.16601562,4.8740118 0.16601562,10.927734 V 37.072266 C 0.16601562,43.125988 5.0380743,48 11.091797,48 h 25.816406 c 6.053723,0 10.925781,-4.874012 10.925781,-10.927734 V 10.927734 C 47.833984,4.8740118 42.961926,0 36.908203,0 Z"
       style="display:inline;fill:url(#linearGradient2);stroke-width:2.1;stroke-linecap:round;stroke-linejoin:round;paint-order:markers fill stroke"
       id="path1" />
    <path
       d="m 8.6640625,17.738281 c -0.1992101,0.0067 -0.387554,0.09246 -0.5234375,0.238281 -0.2820286,0.30225 -0.2663044,0.775722 0.035156,1.058594 l 9.1425777,8.572266 -9.1328121,5.474609 c -0.3555698,0.212929 -0.4710316,0.673901 -0.2578125,1.029297 0.2129286,0.35557 0.6739012,0.471032 1.0292969,0.257813 l 9.4999997,-5.69336 6.265625,5.875 c 0.301968,0.283852 0.776926,0.268983 1.060547,-0.0332 0.283852,-0.301968 0.268983,-0.776926 -0.0332,-1.060547 l -5.955078,-5.583984 6.535156,-3.916016 c 0.355571,-0.212929 0.471033,-0.6739 0.257813,-1.029297 -0.146389,-0.244455 -0.409825,-0.374586 -0.675782,-0.363281 -0.120889,0.0051 -0.242454,0.03884 -0.353515,0.105469 L 18.65625,26.806641 9.2011719,17.941406 C 9.0561718,17.805126 8.8629559,17.732055 8.6640625,17.738281 Z"
       style="fill:#e869d8;fill-opacity:0.21438083;stroke-linecap:round;stroke-linejoin:round;paint-order:markers fill stroke"
       id="path5" />
    <path
       style="color:#000000;fill:#ffffff;stroke-width:0.999999;stroke-linecap:square;stroke-linejoin:round;-inkscape-stroke:none;paint-order:markers fill stroke"
       d="M 17.054165,8.7697768 A 0.80614002,0.80614002 0 0 0 16.436426,9.2765625 L 7.6366439,33.453847 a 0.80632259,0.80632259 0 0 0 1.5158594,0.550267 L 17.952285,9.8283295 a 0.80614002,0.80614002 0 0 0 -0.89812,-1.0585527 z"
       id="path3"
       inkscape:label="/" />
    <path
       d="m 17.334546,8.7682773 a 0.80614002,0.80614002 0 0 0 -0.412325,0.037483 0.80614002,0.80614002 0 0 0 -0.485795,1.022568 l 8.799782,24.1757857 a 0.80614002,0.80614002 0 0 0 0.617737,0.508286 0.80614002,0.80614002 0 0 0 0.08997,-0.0076 V 31.237757 L 17.952285,9.2765625 A 0.80614002,0.80614002 0 0 0 17.334546,8.7682773 Z"
       style="fill:#ffffff;stroke-width:0.999999;stroke-linecap:square;stroke-linejoin:round;paint-order:markers fill stroke"
       id="path11"
       inkscape:label="\" />
    <path
       style="color:#000000;fill:#ffffff;stroke-width:0.999999;stroke-linecap:square;stroke-linejoin:round;-inkscape-stroke:none;paint-order:markers fill stroke"
       d="m 25.945408,11.913948 a 0.80614002,0.80614002 0 0 0 -0.806658,0.794665 v 25.727629 a 0.80614002,0.80614002 0 0 0 1.611817,0 V 12.708613 a 0.80614002,0.80614002 0 0 0 -0.805159,-0.794665 z"
       id="path3-2-7"
       inkscape:label="|" />
    <path
       d="m 25.82396,11.912449 c -0.440105,0.06669 -0.742842,0.477499 -0.676216,0.917612 0.06666,0.440782 0.478463,0.743751 0.919113,0.676215 3.363945,-0.512981 5.696405,-0.222447 7.187962,0.427319 1.491557,0.649767 2.173515,1.607309 2.409482,2.665873 0.471936,2.117131 -1.126878,4.785461 -3.426052,5.342243 C 30.12283,22.453994 22.096342,23.020065 17.674903,21.668827 12.558249,20.105123 9.2514616,17.785468 9.2514616,17.785468 8.8867308,17.529845 8.3838078,17.618477 8.128436,17.983384 c -0.2556225,0.364731 -0.1669899,0.867653 0.1979163,1.123026 0,0 3.5187007,2.467482 8.8777487,4.105265 9.099527,2.78091 13.588822,-1.87289 19.349324,3.157666 3.936602,3.437771 1.467803,7.968422 1.064551,8.645346 -1.0149,1.750574 -2.981129,2.30456 -4.884936,2.53393 -1.453163,0.127137 -3.458325,0.05864 -6.793629,0.08247 -0.44506,0.0029 -0.803487,0.366098 -0.800661,0.811157 0.0029,0.445061 0.366095,0.803486 0.811156,0.800663 3.306971,-0.02363 5.299606,0.05366 6.924074,-0.08846 2.741873,-0.239886 4.897527,-1.247183 6.12941,-3.315099 1.547899,-2.59839 2.470848,-7.312945 -1.389913,-10.684486 -1.245502,-1.087676 -2.32185,-1.729431 -3.578988,-2.198071 2.385759,-1.287584 3.782816,-4.105502 3.202647,-6.708165 -0.343788,-1.542255 -1.452354,-2.972137 -3.337589,-3.793401 -0.942617,-0.410631 -2.07138,-0.681502 -3.409559,-0.782669 -1.08735,-0.0822 -2.608386,-0.07388 -4.666028,0.239899 z"
       style="display:inline;fill:#ffffff;stroke-width:0.999999;stroke-linecap:round;stroke-linejoin:round;paint-order:markers fill stroke"
       id="path6"
       sodipodi:nodetypes="cccsssscccsssscccssscsssc"
       inkscape:label="-3" />
    <g
       inkscape:groupmode="layer"
       id="layer2"
       inkscape:label="AMIAHBELLEISLE"
       inkscape:highlight-color="#cd8bd9">
      <path
         d="m 39.207031,42.937157 c -0.07063,-0.0021 -0.169819,0.01887 -0.174223,0.105642 -0.01993,0.08376 0.04952,0.160243 0.132985,0.159795 0.02365,0.01423 0.09026,-0.01965 0.08226,0.02328 0,0.33345 0,0.6669 0,1.00035 -0.07357,-0.0011 -0.168955,-0.0025 -0.205835,0.07456 -0.04001,0.08333 0.01964,0.187764 0.114127,0.187845 0.139219,0.0069 0.278981,0.0015 0.418428,0.0032 0.29604,0 0.59208,0 0.88812,0 -0.0012,-0.148721 0.0025,-0.297606 -0.0021,-0.446216 0.0027,-0.09123 -0.08749,-0.165443 -0.176017,-0.131392 -0.08544,0.02851 -0.08981,0.131226 -0.08755,0.207126 0,0.03495 0,0.0699 0,0.104857 -0.227865,0 -0.455729,0 -0.683594,0 0,-0.127604 0,-0.255208 0,-0.382812 0.07552,0 0.151041,0 0.226562,0 -0.0042,0.0749 0.01264,0.177957 0.101584,0.19257 0.08954,0.02579 0.164857,-0.05556 0.160935,-0.141593 0.0014,-0.124645 0.0029,-0.249567 -9.08e-4,-0.374147 0.0026,-0.09074 -0.08686,-0.165369 -0.175175,-0.131393 -0.07836,0.02579 -0.08862,0.120141 -0.08644,0.190892 -0.07552,0 -0.151041,0 -0.226562,0 0,-0.125 0,-0.25 0,-0.375 0.208333,0 0.416667,0 0.625,0 0.0043,0.08499 -0.01408,0.17552 0.02531,0.254568 0.04832,0.08635 0.203255,0.07161 0.227417,-0.02775 0.02251,-0.08569 0.0093,-0.175433 0.0129,-0.26308 0,-0.0771 0,-0.154209 0,-0.231314 -0.399089,-2e-6 -0.798179,-3e-6 -1.197268,-5e-6 z"
         style="-inkscape-font-specification:'FreeMono Bold';fill:#a2108f;fill-opacity:1;stroke-width:2.1;stroke-linecap:round;stroke-linejoin:round;paint-order:markers fill stroke"
         id="path22"
         inkscape:label="E" />
      <path
         d="m 36.839844,42.937157 c -0.0707,-0.0024 -0.167742,0.02032 -0.174041,0.105642 -0.02034,0.08373 0.04945,0.160253 0.132806,0.159795 0.0644,0.0042 0.129063,0.0013 0.193583,0.0021 0,0.340495 0,0.680989 0,1.021484 -0.08543,0.0039 -0.173849,-0.01114 -0.256361,0.01645 -0.102949,0.03443 -0.09409,0.210376 0.01126,0.236275 0.08531,0.02258 0.17475,0.0093 0.262049,0.0129 0.363492,0 0.726985,0 1.090477,0 -0.0011,-0.184309 0.0023,-0.368753 -0.0018,-0.552973 0.0026,-0.08055 -0.0635,-0.154527 -0.147155,-0.137719 -0.08998,0.0032 -0.122847,0.102839 -0.118604,0.178978 0,0.08203 0,0.164063 0,0.246094 -0.190755,0 -0.38151,0 -0.572265,0 0,-0.340495 0,-0.680989 0,-1.021484 0.08166,-0.0034 0.165553,0.0095 0.245105,-0.01335 0.110616,-0.02896 0.111611,-0.213114 -10e-7,-0.241324 -0.08531,-0.02258 -0.17475,-0.0093 -0.262049,-0.0129 -0.134328,-2e-6 -0.268656,-5e-6 -0.402984,-8e-6 z"
         style="-inkscape-font-specification:'FreeMono Bold';fill:#a2108f;fill-opacity:1;stroke-width:2.1;stroke-linecap:round;stroke-linejoin:round;paint-order:markers fill stroke"
         id="path21"
         inkscape:label="L" />
      <path
         d="m 34.953125,42.900047 c -0.210936,-0.0049 -0.436112,0.09463 -0.53645,0.287355 -0.09148,0.180352 -0.0281,0.419393 0.140556,0.531135 0.143199,0.09405 0.318628,0.114004 0.482684,0.148195 0.0946,0.01579 0.20506,0.04235 0.25919,0.129233 0.04099,0.07372 -0.0039,0.164536 -0.07394,0.201333 -0.142869,0.08476 -0.325802,0.0828 -0.478642,0.02713 -0.07443,-0.0269 -0.149988,-0.07922 -0.163537,-0.162637 -0.0116,-0.07548 -0.09224,-0.115699 -0.162453,-0.09817 -0.08762,0.01418 -0.10188,0.116229 -0.09839,0.189222 0.0035,0.08462 -0.0095,0.17136 0.01299,0.253976 0.02329,0.09032 0.152383,0.11061 0.209124,0.04036 0.04702,-0.04358 0.119895,0.0451 0.182641,0.04537 0.197341,0.05567 0.418042,0.05172 0.606027,-0.03476 0.142171,-0.06556 0.255198,-0.205312 0.258088,-0.366086 0.01308,-0.155518 -0.06699,-0.31305 -0.202697,-0.391099 -0.121927,-0.0688 -0.262165,-0.09468 -0.398159,-0.120715 -0.106181,-0.01472 -0.226197,-0.0309 -0.303643,-0.112582 -0.06142,-0.0708 -0.03576,-0.186822 0.04294,-0.233715 0.134776,-0.09446 0.330336,-0.09031 0.465114,0.002 0.06373,0.03755 0.07678,0.111154 0.09249,0.176099 0.02476,0.08623 0.147649,0.103416 0.206591,0.04354 0.05991,-0.07514 0.03667,-0.175925 0.04146,-0.264855 -0.0037,-0.08587 0.01471,-0.179532 -0.03419,-0.25606 -0.04793,-0.0498 -0.15357,-0.05019 -0.184088,0.02038 -0.02238,0.06794 -0.09823,-0.03099 -0.152411,-0.02692 -0.06848,-0.01989 -0.140295,-0.02781 -0.211288,-0.02775 z"
         style="-inkscape-font-specification:'FreeMono Bold';fill:#a2108f;fill-opacity:1;stroke-width:2.1;stroke-linecap:round;stroke-linejoin:round;paint-order:markers fill stroke"
         id="path20"
         inkscape:label="S" />
      <path
         d="m 32.134766,42.937157 c -0.06825,-0.0013 -0.16268,0.01623 -0.174656,0.09739 -0.01781,0.06986 0.02282,0.149763 0.09739,0.161633 0.08673,0.01559 0.175624,0.0058 0.263386,0.0086 0.02781,0 0.05561,0 0.08342,0 0,0.340495 0,0.680989 0,1.021484 -0.109294,0.0019 -0.218991,-0.0042 -0.327968,0.0041 -0.07125,0.003 -0.129984,0.06466 -0.119116,0.136915 -0.0029,0.07852 0.07636,0.123054 0.146062,0.123451 0.282281,0.0026 0.564684,5.84e-4 0.84701,10e-4 0.07198,0.0027 0.162565,-0.03263 0.164269,-0.116543 0.01272,-0.06967 -0.03493,-0.139125 -0.108005,-0.143353 -0.09937,-0.01085 -0.199852,-0.0034 -0.299732,-0.0056 -0.03021,0.0063 -0.04454,-0.0033 -0.03689,-0.0349 0,-0.328863 0,-0.657725 0,-0.986588 0.106715,-0.0016 0.213747,0.0036 0.32022,-0.0033 0.07192,-0.0038 0.135731,-0.06602 0.12492,-0.140879 0.0063,-0.07568 -0.06749,-0.120711 -0.13541,-0.121525 -0.194236,-0.0041 -0.388702,-7.24e-4 -0.583031,-0.0018 -0.08729,0 -0.174578,0 -0.261867,0 z"
         style="-inkscape-font-specification:'FreeMono Bold';fill:#a2108f;fill-opacity:1;stroke-width:2.1;stroke-linecap:round;stroke-linejoin:round;paint-order:markers fill stroke"
         id="path19"
         inkscape:label="I" />
      <path
         d="m 29.527344,42.937157 c -0.07063,-0.0021 -0.16982,0.01887 -0.174224,0.105642 -0.01993,0.08376 0.04952,0.160243 0.132986,0.159795 0.02286,0.01433 0.08918,-0.01985 0.0803,0.02328 0,0.33345 0,0.6669 0,1.00035 -0.07303,-0.0012 -0.167428,-0.0018 -0.203876,0.07456 -0.04001,0.08333 0.01964,0.187764 0.114128,0.187845 0.139219,0.0069 0.278981,0.0015 0.418428,0.0032 0.29604,0 0.592079,0 0.888119,0 -0.0012,-0.148721 0.0025,-0.297606 -0.0021,-0.446216 0.0027,-0.09123 -0.08748,-0.165444 -0.176016,-0.131392 -0.08544,0.02851 -0.08981,0.131225 -0.08755,0.207126 0,0.03495 0,0.0699 0,0.104857 -0.227865,0 -0.455729,0 -0.683594,0 0,-0.127604 0,-0.255208 0,-0.382812 0.07552,0 0.151042,0 0.226563,0 -0.0042,0.0749 0.01264,0.177957 0.101584,0.19257 0.08954,0.02579 0.164857,-0.05556 0.160935,-0.141593 0.0014,-0.124645 0.0029,-0.249567 -9.08e-4,-0.374147 0.0026,-0.09074 -0.08687,-0.165369 -0.175176,-0.131393 -0.07836,0.02579 -0.08862,0.120141 -0.08643,0.190892 -0.07552,0 -0.151042,0 -0.226563,0 0,-0.125 0,-0.25 0,-0.375 0.207682,0 0.415365,0 0.623047,0 0.0044,0.08501 -0.0144,0.175836 0.0261,0.254568 0.04913,0.08587 0.204077,0.07212 0.228574,-0.02775 0.02251,-0.08569 0.0093,-0.175433 0.0129,-0.26308 0,-0.0771 0,-0.154209 0,-0.231314 -0.399089,-2e-6 -0.798178,-3e-6 -1.197267,-5e-6 z"
         style="-inkscape-font-specification:'FreeMono Bold';fill:#a2108f;fill-opacity:1;stroke-width:2.1;stroke-linecap:round;stroke-linejoin:round;paint-order:markers fill stroke"
         id="path18"
         inkscape:label="E" />
      <path
         d="m 27.160156,42.937157 c -0.07063,-0.0021 -0.169819,0.01887 -0.174223,0.105642 -0.01993,0.08376 0.04952,0.160243 0.132985,0.159795 0.0644,0.0042 0.129063,0.0013 0.193582,0.0021 0,0.340495 0,0.680989 0,1.021484 -0.08599,0.0038 -0.174871,-0.01097 -0.258007,0.01645 -0.08712,0.02864 -0.09271,0.16387 -0.02623,0.216103 0.0785,0.05025 0.175076,0.02808 0.263088,0.03307 0.376189,0 0.752379,0 1.128568,0 -0.0011,-0.184309 0.0023,-0.368753 -0.0018,-0.552973 0.0029,-0.0817 -0.06517,-0.154341 -0.149087,-0.137719 -0.08992,0.0033 -0.120754,0.103474 -0.116672,0.178978 0,0.08203 0,0.164063 0,0.246094 -0.190755,0 -0.381511,0 -0.572266,0 0,-0.340495 0,-0.680989 0,-1.021484 0.08607,-0.0042 0.175908,0.01244 0.25819,-0.0192 0.09983,-0.03946 0.09184,-0.209853 -0.01458,-0.235474 -0.08548,-0.02254 -0.175049,-0.0093 -0.262503,-0.0129 -0.133675,-2e-6 -0.267349,-5e-6 -0.401024,-8e-6 z"
         style="-inkscape-font-specification:'FreeMono Bold';fill:#a2108f;fill-opacity:1;stroke-width:2.1;stroke-linecap:round;stroke-linejoin:round;paint-order:markers fill stroke"
         id="path17"
         inkscape:label="L" />
      <path
         d="m 24.740234,42.937157 c -0.07063,-0.0021 -0.169819,0.01887 -0.174223,0.105642 -0.01993,0.08376 0.04952,0.160243 0.132985,0.159795 0.0644,0.0042 0.129064,0.0013 0.193584,0.0021 0,0.340495 0,0.680989 0,1.021484 -0.08599,0.0038 -0.174871,-0.01097 -0.258007,0.01645 -0.08712,0.02864 -0.09271,0.16387 -0.02623,0.216103 0.0785,0.05025 0.175076,0.02808 0.263088,0.03307 0.376188,0 0.752376,0 1.128564,0 -0.0011,-0.184309 0.0023,-0.368753 -0.0018,-0.552973 0.0029,-0.0817 -0.06517,-0.154341 -0.149087,-0.137719 -0.08992,0.0033 -0.120754,0.103474 -0.116672,0.178978 0,0.08203 0,0.164063 0,0.246094 -0.190755,0 -0.381511,0 -0.572266,0 0,-0.340495 0,-0.680989 0,-1.021484 0.08607,-0.0042 0.175908,0.01244 0.25819,-0.0192 0.09983,-0.03946 0.09184,-0.209853 -0.01458,-0.235474 -0.08548,-0.02254 -0.175049,-0.0093 -0.262503,-0.0129 -0.133674,-2e-6 -0.267348,-5e-6 -0.401022,-8e-6 z"
         style="-inkscape-font-specification:'FreeMono Bold';fill:#a2108f;fill-opacity:1;stroke-width:2.1;stroke-linecap:round;stroke-linejoin:round;paint-order:markers fill stroke"
         id="path16"
         inkscape:label="L" />
      <path
         d="m 22.267578,42.937157 c -0.07063,-0.0021 -0.169819,0.01887 -0.174223,0.105642 -0.01993,0.08376 0.04952,0.160243 0.132985,0.159795 0.02286,0.01433 0.08918,-0.01985 0.0803,0.02328 0,0.33345 0,0.6669 0,1.00035 -0.07303,-0.0012 -0.167428,-0.0018 -0.203875,0.07456 -0.04001,0.08333 0.01964,0.187764 0.114127,0.187845 0.139219,0.0069 0.278981,0.0015 0.418428,0.0032 0.29604,0 0.592079,0 0.888119,0 -0.0012,-0.148721 0.0025,-0.297606 -0.0021,-0.446216 0.0027,-0.09134 -0.08762,-0.165454 -0.176196,-0.131392 -0.08593,0.02802 -0.09198,0.130779 -0.08932,0.207126 0,0.03495 0,0.0699 0,0.104857 -0.227213,0 -0.454427,0 -0.68164,0 0,-0.127604 0,-0.255208 0,-0.382812 0.07552,0 0.151041,0 0.226562,0 -0.0042,0.0749 0.01264,0.177957 0.101584,0.19257 0.08954,0.02579 0.164857,-0.05556 0.160935,-0.141593 0.0014,-0.124645 0.0029,-0.249567 -9.08e-4,-0.374147 0.0026,-0.09074 -0.08686,-0.165369 -0.175175,-0.131393 -0.07836,0.02579 -0.08862,0.120141 -0.08644,0.190892 -0.07552,0 -0.151041,0 -0.226562,0 0,-0.125 0,-0.25 0,-0.375 0.207682,0 0.415365,0 0.623047,0 0.0044,0.08501 -0.0144,0.175836 0.0261,0.254568 0.04913,0.08587 0.204076,0.07212 0.228574,-0.02775 0.02251,-0.08569 0.0093,-0.175433 0.0129,-0.26308 0,-0.0771 0,-0.154209 0,-0.231314 -0.399089,-2e-6 -0.798179,-3e-6 -1.197268,-5e-6 z"
         style="-inkscape-font-specification:'FreeMono Bold';fill:#a2108f;fill-opacity:1;stroke-width:2.1;stroke-linecap:round;stroke-linejoin:round;paint-order:markers fill stroke"
         id="path15"
         inkscape:label="E" />
      <path
         id="path26"
         style="-inkscape-font-specification:'FreeMono Bold';display:inline;fill:#a2108f;fill-opacity:1;stroke-width:2.1;stroke-linecap:round;stroke-linejoin:round;paint-order:markers fill stroke"
         inkscape:label="B"
         d="m 19.900672,42.936995 c -0.07721,-0.0044 -0.183055,0.02752 -0.175607,0.123353 -0.0135,0.08907 0.07401,0.147318 0.154299,0.143692 0.0272,0.0046 0.07666,-0.01469 0.06232,0.03067 0,0.330451 0,0.660902 0,0.991353 -0.07358,-0.0011 -0.168942,-0.0025 -0.205825,0.07456 -0.04001,0.08333 0.01964,0.187763 0.114127,0.187845 0.141467,0.0069 0.283479,0.0015 0.425174,0.0032 0.166083,-0.0018 0.332425,0.0041 0.498298,-0.0041 0.179372,-0.01316 0.368914,-0.11757 0.422555,-0.298695 0.04537,-0.144849 0.002,-0.313877 -0.116856,-0.411191 -0.03212,-0.04446 -0.132771,-0.07326 -0.13885,-0.106712 0.107229,-0.08085 0.177858,-0.216199 0.154045,-0.352114 -0.02347,-0.203865 -0.216744,-0.349497 -0.411257,-0.374083 -0.134612,-0.01422 -0.270411,-0.0053 -0.405599,-0.0078 -0.125608,-1e-6 -0.251216,-1e-6 -0.376824,-2e-6 z m 0.306641,0.267579 c 0.142838,0.0019 0.286018,-0.0044 0.428579,0.0043 0.08602,0.008 0.19216,0.05714 0.196141,0.155728 0.0079,0.114474 -0.10778,0.188835 -0.208486,0.204757 -0.12219,0.01804 -0.246279,0.0072 -0.369414,0.01018 -0.03008,0.003 -0.05808,0.0039 -0.04682,-0.03443 0,-0.113522 -10e-7,-0.227044 -10e-7,-0.340566 z m 0,0.642578 c 0.146865,0.0018 0.294008,-0.0042 0.440654,0.0041 0.115106,0.01222 0.253574,0.05801 0.291204,0.179752 0.02767,0.07545 -0.02201,0.158553 -0.09947,0.174663 -0.121264,0.03269 -0.248098,0.01645 -0.372201,0.02042 -0.08673,0 -0.173455,0 -0.260183,0 0,-0.126301 0,-0.252602 0,-0.378903 z" />
      <path
         d="m 17.507812,42.937157 c -0.07373,-0.0033 -0.176536,0.02282 -0.175088,0.114295 -0.01937,0.08776 0.06483,0.15192 0.137981,0.157591 0,0.33906 0,0.67812 0,1.01718 -0.07297,-0.0027 -0.175898,0.0098 -0.190282,0.09739 -0.02479,0.08533 0.04445,0.167977 0.131467,0.166175 0.132164,0.0038 0.264676,0.0024 0.396907,9.02e-4 0.08697,0.004 0.16732,-0.07312 0.141592,-0.162881 -0.01486,-0.08979 -0.119169,-0.105827 -0.194562,-0.101585 -0.03529,0.0087 -0.01354,-0.03963 -0.0195,-0.06026 0,-0.105566 0,-0.211132 0,-0.316698 0.190104,0 0.380209,0 0.570313,0 0,0.125651 0,0.251302 0,0.376953 -0.07304,-0.0012 -0.167424,-0.0018 -0.203875,0.07456 -0.04001,0.08333 0.01964,0.187764 0.114127,0.187845 0.127673,0.0067 0.255883,0.0017 0.383782,0.0031 0.07828,0.0047 0.17344,-0.0418 0.164953,-0.132683 0.0085,-0.09088 -0.08667,-0.137415 -0.164954,-0.132684 -0.04207,0.01289 -0.02191,-0.03596 -0.02646,-0.06039 0,-0.320407 0,-0.640815 0,-0.961222 0.09393,0.004 0.165452,-0.09135 0.132505,-0.180031 -0.02701,-0.08533 -0.128969,-0.09002 -0.204051,-0.08755 -0.100691,0.0023 -0.202005,-0.0054 -0.302185,0.0056 -0.09843,0.0034 -0.135591,0.121845 -0.09155,0.197874 0.04211,0.06616 0.12801,0.06503 0.197704,0.06412 0,0.126302 0,0.252604 0,0.378906 -0.190104,0 -0.380209,0 -0.570313,0 0,-0.126302 0,-0.252604 0,-0.378906 0.07393,0.0015 0.169518,0.0015 0.205835,-0.07621 0.03998,-0.08342 -0.01945,-0.188058 -0.114127,-0.188147 -0.106421,-0.0067 -0.213555,-0.0017 -0.320222,-0.0032 z"
         style="-inkscape-font-specification:'FreeMono Bold';fill:#a2108f;fill-opacity:1;stroke-width:2.1;stroke-linecap:round;stroke-linejoin:round;paint-order:markers fill stroke"
         id="path14"
         inkscape:label="H" />
      <path
         id="path25"
         style="-inkscape-font-specification:'FreeMono Bold';display:inline;fill:#a2108f;fill-opacity:1;stroke-width:2.1;stroke-linecap:round;stroke-linejoin:round;paint-order:markers fill stroke"
         d="m 15.109817,42.936995 c -0.07832,-0.0042 -0.188348,0.0235 -0.179513,0.123032 -0.01347,0.09064 0.07706,0.147474 0.157869,0.144006 0.06319,0.0012 0.126412,2.48e-4 0.189615,5.37e-4 -0.138021,0.340495 -0.276042,0.680989 -0.414063,1.021484 -0.09323,-0.0078 -0.144017,0.09843 -0.11791,0.178075 0.01695,0.08052 0.108407,0.09221 0.177034,0.08755 0.119319,-0.0019 0.239031,0.0044 0.358039,-0.0043 0.09923,-5.45e-4 0.137477,-0.123016 0.09304,-0.198747 -0.04825,-0.07198 -0.143047,-0.06197 -0.219194,-0.06262 0.02018,-0.05208 0.04037,-0.104167 0.06055,-0.15625 0.211589,0 0.423177,0 0.634766,0 0.02018,0.05208 0.04037,0.104167 0.06055,0.15625 -0.07953,1.77e-4 -0.183881,-0.0092 -0.225366,0.07456 -0.03606,0.07949 0.0075,0.193891 0.106493,0.188114 0.140076,0.0059 0.280563,0.0021 0.420796,0.0025 0.09751,0.01324 0.145875,-0.08325 0.125881,-0.166787 0.0099,-0.0905 -0.09923,-0.07925 -0.131619,-0.119014 -0.174251,-0.422813 -0.348501,-0.845626 -0.522751,-1.268439 -0.191405,2e-6 -0.38281,3e-6 -0.574215,5e-6 z m 0.423828,0.355469 c 0.06901,0.170573 0.138021,0.341146 0.207032,0.511719 -0.139323,0 -0.278646,0 -0.417969,0 0.07031,-0.170573 0.140625,-0.341146 0.210937,-0.511719 z"
         inkscape:label="A" />
      <path
         d="m 12.773438,42.937157 c -0.08332,-0.009 -0.190541,0.03768 -0.176753,0.137005 -9.69e-4,0.07932 0.07367,0.132131 0.147998,0.128346 0.09931,0.0053 0.198857,7.28e-4 0.298286,0.0023 0,0.340495 0,0.680989 0,1.021484 -0.117945,0.0029 -0.236727,-0.007 -0.354048,0.0078 -0.09632,0.0187 -0.124892,0.157476 -0.05309,0.21862 0.07401,0.06056 0.174892,0.03222 0.262261,0.0391 0.243587,-4.21e-4 0.487329,0.0022 0.73082,-0.0018 0.09201,-0.0026 0.156422,-0.101319 0.119063,-0.185758 -0.03039,-0.07751 -0.121398,-0.07772 -0.191307,-0.07767 -0.08203,-0.0019 -0.164081,0.0011 -0.246118,-2.11e-4 0,-0.340495 0,-0.680989 0,-1.021484 0.11547,-0.003 0.231876,0.0072 0.346677,-0.0074 0.08649,-0.01739 0.126158,-0.125138 0.08353,-0.198362 -0.05112,-0.07633 -0.151009,-0.05818 -0.229756,-0.06156 -0.24578,-8.49e-4 -0.492003,3.31e-4 -0.737562,-3.36e-4 z"
         style="-inkscape-font-specification:'FreeMono Bold';fill:#a2108f;fill-opacity:1;stroke-width:2.1;stroke-linecap:round;stroke-linejoin:round;paint-order:markers fill stroke"
         id="path13"
         inkscape:label="I" />
      <path
         d="m 10.204917,42.937157 c -0.0966,-0.01423 -0.162182,0.08521 -0.134796,0.172599 -0.0059,0.07776 0.107087,0.06945 0.107452,0.1237 0,0.330921 0,0.661842 0,0.992763 -0.09532,-0.0092 -0.127839,0.103188 -0.106924,0.178078 0.0096,0.07162 0.08717,0.09452 0.149317,0.08755 0.126436,-0.0012 0.253067,0.0025 0.379373,-0.0021 0.09759,-6.5e-5 0.144935,-0.119678 0.09847,-0.196797 -0.04525,-0.07509 -0.138009,-0.06748 -0.213823,-0.06676 -0.0378,0.01 -0.04462,-0.01101 -0.03884,-0.04461 0,-0.241639 0,-0.483279 0,-0.724918 0.104818,0.223307 0.209635,0.446615 0.314453,0.669922 0.08073,0 0.161458,0 0.242187,0 0.09896,-0.223958 0.197917,-0.447917 0.296875,-0.671875 0,0.257161 0,0.514323 0,0.771484 -0.08108,0.0048 -0.176795,-0.01959 -0.239805,0.04618 -0.0591,0.06774 -0.0309,0.203583 0.06804,0.214803 0.110067,0.0096 0.2212,0.0024 0.33173,0.0046 0.06268,-0.0043 0.142221,0.01762 0.185039,-0.04188 0.04129,-0.07068 0.03045,-0.194163 -0.05884,-0.221447 -0.03828,0.0019 -0.01353,-0.05212 -0.02055,-0.07814 0,-0.315214 0,-0.630428 0,-0.945642 0.07799,-0.01339 0.114963,-0.09834 0.09932,-0.170188 -0.003,-0.08064 -0.09205,-0.104839 -0.15874,-0.09739 -0.09022,0 -0.180435,0 -0.270653,0 -0.119792,0.264974 -0.239583,0.529947 -0.359375,0.794921 -0.123047,-0.264974 -0.246094,-0.529947 -0.369141,-0.794921 -0.10026,0 -0.200521,10e-7 -0.300781,10e-7 z"
         style="-inkscape-font-specification:'FreeMono Bold';fill:#a2108f;fill-opacity:1;stroke-width:2.1;stroke-linecap:round;stroke-linejoin:round;paint-order:markers fill stroke"
         id="path12"
         inkscape:label="M" />
      <path
         id="path24"
         style="-inkscape-font-specification:'FreeMono Bold';fill:#a2108f;fill-opacity:1;stroke-width:2.1;stroke-linecap:round;stroke-linejoin:round;paint-order:markers fill stroke"
         d="m 7.9573127,42.936995 c -0.077931,-0.0044 -0.1863894,0.02458 -0.177562,0.123032 -0.014265,0.09499 0.083075,0.150828 0.1665724,0.144409 0.059651,3.04e-4 0.1193058,5.1e-5 0.1789583,1.34e-4 -0.1373698,0.340496 -0.2747395,0.680992 -0.4121093,1.021488 -0.093235,-0.0078 -0.1440129,0.09843 -0.1179076,0.178075 0.016951,0.08052 0.1084078,0.09221 0.1770354,0.08755 0.1193182,-0.0019 0.2390299,0.0044 0.3580372,-0.0043 0.099223,-5.45e-4 0.1374825,-0.123015 0.093042,-0.198747 -0.048251,-0.07198 -0.143045,-0.06197 -0.2191914,-0.06262 0.020182,-0.05208 0.040365,-0.104167 0.060547,-0.15625 0.2115885,0 0.4231771,0 0.6347656,0 0.020182,0.05208 0.040365,0.104167 0.060547,0.15625 -0.079533,1.77e-4 -0.1838781,-0.0092 -0.2253624,0.07456 -0.036058,0.07949 0.0075,0.193892 0.1064901,0.188114 0.1400491,0.0059 0.2805029,0.002 0.4207127,0.0026 0.097484,0.01472 0.1451776,-0.08407 0.1259632,-0.166876 0.00988,-0.09049 -0.099221,-0.07925 -0.1316162,-0.119014 -0.1742502,-0.422813 -0.3485003,-0.845626 -0.5227505,-1.268439 -0.1920573,1e-6 -0.3841145,3e-6 -0.5761718,4e-6 z m 0.4257813,0.355469 c 0.06901,0.170573 0.1380208,0.341146 0.2070312,0.511719 -0.1393229,0 -0.2786459,0 -0.4179688,0 0.070312,-0.170573 0.1406251,-0.341146 0.2109376,-0.511719 z"
         inkscape:label="A" />
    </g>
  </g>
  <metadata
     id="metadata30">
    <rdf:RDF>
      <cc:Work
         rdf:about="">
        <dc:title>Amiah's Icon</dc:title>
        <dc:date>Feb 27, 2025</dc:date>
        <dc:creator>
          <cc:Agent>
            <dc:title>Amiah Belle Isle</dc:title>
          </cc:Agent>
        </dc:creator>
        <dc:rights>
          <cc:Agent>
            <dc:title>All Rights Reserved</dc:title>
          </cc:Agent>
        </dc:rights>
        <dc:description>amiah.dev site favicon</dc:description>
        <dc:relation>https://amiah.dev</dc:relation>
        <dc:subject>
          <rdf:Bag>
            <rdf:li>Icon</rdf:li>
            <rdf:li>Amiah</rdf:li>
            <rdf:li>Website</rdf:li>
            <rdf:li>Favicon</rdf:li>
          </rdf:Bag>
        </dc:subject>
      </cc:Work>
    </rdf:RDF>
  </metadata>
</svg>
